<svg width="512" height="512" viewBox="0 0 512 512" fill="none" xmlns="http://www.w3.org/2000/svg">
<path d="M506.552 317.933C496.813 303.621 477.201 299.833 462.845 309.481L397.505 353.209L397.315 217.099L420.015 238.364C424.842 242.885 431.136 245.373 437.744 245.373C437.756 245.373 437.77 245.373 437.783 245.373C444.917 245.363 451.805 242.373 456.681 237.168C461.418 232.111 463.903 225.513 463.677 218.587C463.451 211.661 460.541 205.238 455.484 200.501L412.449 160.187C409.503 157.427 404.878 157.578 402.119 160.524C399.36 163.47 399.511 168.094 402.456 170.854L445.491 211.168C447.699 213.236 448.969 216.04 449.068 219.063C449.166 222.086 448.082 224.967 446.013 227.174C443.853 229.48 440.923 230.752 437.761 230.756C437.755 230.756 437.75 230.756 437.744 230.756C434.861 230.756 432.114 229.67 430.007 227.696L430.006 227.695L259.124 67.616C256.308 64.979 251.926 64.983 249.117 67.63L78.679 228.188C76.478 230.262 73.6 231.348 70.576 231.264C67.552 231.174 64.745 229.911 62.671 227.708C60.597 225.507 59.504 222.629 59.595 219.606C59.685 216.582 60.948 213.775 63.149 211.701L246.326 39.143C250.668 35.052 257.48 35.042 261.833 39.122L369 139.514C371.945 142.273 376.57 142.123 379.33 139.177C382.089 136.231 381.938 131.607 378.993 128.847L271.827 28.455C261.854 19.111 246.251 19.132 236.304 28.504L177.665 83.744L177.649 73.891C177.645 70.785 176.431 67.867 174.232 65.675C172.037 63.486 169.123 62.281 166.023 62.281C166.017 62.281 166.012 62.281 166.006 62.281L124.059 62.34C120.953 62.344 118.036 63.558 115.843 65.757C113.651 67.956 112.445 70.877 112.45 73.984L112.566 145.071L53.127 201.064C48.083 205.815 45.192 212.246 44.985 219.172C44.778 226.098 47.281 232.69 52.032 237.732C56.782 242.776 63.213 245.668 70.14 245.875C70.405 245.883 70.67 245.887 70.935 245.887C77.57 245.887 83.853 243.397 88.702 238.827L111.351 217.491L111.441 281.782C104.113 280.715 96.699 280.155 89.251 280.155H76.746V275.773C76.746 261.062 64.777 249.093 50.066 249.093H26.68C11.969 249.092 0 261.06 0 275.772V390.29C0 394.326 3.272 397.598 7.308 397.598C11.344 397.598 14.616 394.326 14.616 390.29V275.772C14.616 269.12 20.028 263.708 26.68 263.708H50.065C56.717 263.708 62.129 269.12 62.129 275.772V287.462V437.258V448.833C62.129 455.485 56.717 460.897 50.065 460.897H26.68C20.028 460.897 14.616 455.485 14.616 448.833V436.045C14.616 432.009 11.344 428.737 7.308 428.737C3.272 428.737 0 432.009 0 436.045V448.833C0 463.544 11.969 475.513 26.68 475.513H50.065C64.776 475.513 76.745 463.545 76.745 448.833V447.84L183.769 488.368C183.967 488.443 184.168 488.509 184.372 488.566C189.025 489.88 193.676 490.539 198.268 490.539C200.752 490.539 203.219 490.346 205.661 489.96L362.942 467.288C362.979 467.283 363.015 467.277 363.052 467.271C376.424 465.136 389.039 459.483 399.532 450.925C399.623 450.851 399.713 450.774 399.8 450.695L501.411 359.307C513.244 348.802 515.453 331.015 506.552 317.933ZM163.037 76.902L163.071 97.492L127.159 131.322L127.07 76.951L163.037 76.902ZM254.141 82.976L382.679 203.388L382.902 362.981L362.211 376.829L340.3 375.6L339.721 369.78C337.682 349.282 322.55 332.793 302.541 328.858L302.409 233.913C302.399 226.627 296.467 220.706 289.182 220.706C289.176 220.706 289.171 220.706 289.164 220.706L219.51 220.804C215.977 220.809 212.657 222.189 210.163 224.691C207.668 227.192 206.297 230.516 206.302 234.048L206.418 316.829C192.621 313.675 179.447 308.466 167.13 301.261C165.593 300.362 164.041 299.494 162.476 298.65C161.866 298.321 161.246 298.012 160.631 297.691C159.679 297.194 158.729 296.694 157.767 296.217C157.001 295.837 156.226 295.477 155.454 295.11C154.635 294.721 153.817 294.328 152.992 293.953C152.152 293.572 151.305 293.209 150.459 292.843C149.686 292.509 148.913 292.173 148.135 291.852C147.265 291.493 146.39 291.148 145.514 290.805C144.737 290.501 143.959 290.199 143.178 289.907C142.311 289.583 141.44 289.27 140.567 288.963C139.748 288.674 138.928 288.392 138.104 288.117C137.268 287.838 136.43 287.565 135.588 287.3C134.691 287.017 133.79 286.747 132.888 286.48C132.113 286.252 131.339 286.024 130.56 285.808C129.543 285.525 128.521 285.26 127.498 284.998C127.019 284.875 126.543 284.736 126.061 284.617L125.948 203.739L254.141 82.976ZM287.923 327.029L226.798 319.992L221.039 319.329L220.921 235.418L287.795 235.324L287.923 327.029ZM491.673 348.41L390.162 439.708C381.703 446.567 371.556 451.104 360.801 452.83L203.588 475.492C203.555 475.497 203.523 475.502 203.49 475.507L203.381 475.524C198.618 476.278 193.658 475.96 188.637 474.582L76.746 432.21V294.77H89.251C99.896 294.77 110.469 295.999 120.765 298.386C121.148 298.475 121.53 298.566 121.912 298.658C123.177 298.963 124.439 299.277 125.695 299.617C125.805 299.647 125.914 299.679 126.024 299.709C127.283 300.053 128.537 300.416 129.787 300.795C130.011 300.863 130.236 300.93 130.459 300.999C131.789 301.41 133.113 301.839 134.43 302.289C134.566 302.336 134.701 302.384 134.837 302.431C137.58 303.378 140.296 304.411 142.978 305.529C143.124 305.59 143.27 305.651 143.416 305.713C144.753 306.275 146.082 306.856 147.402 307.46C147.437 307.476 147.473 307.493 147.508 307.51C148.784 308.096 150.051 308.704 151.31 309.329C151.458 309.402 151.607 309.474 151.755 309.548C152.985 310.163 154.205 310.8 155.418 311.452C155.647 311.575 155.875 311.701 156.104 311.825C157.328 312.492 158.545 313.172 159.75 313.877C177.141 324.05 196.073 330.639 216.021 333.462C216.084 333.471 216.146 333.479 216.209 333.486L298.09 342.913C298.543 342.978 298.993 343.053 299.44 343.137C311.494 345.401 321.008 354.308 324.191 365.907C324.663 367.625 324.995 369.403 325.177 371.226L325.502 374.496L172.042 361.051C168.024 360.7 164.476 363.673 164.124 367.693C163.771 371.714 166.746 375.259 170.766 375.611L333.008 389.826C333.047 389.829 333.085 389.828 333.123 389.831C333.161 389.834 333.198 389.84 333.237 389.843L363.834 391.56C363.971 391.568 364.107 391.571 364.243 391.571C364.388 391.571 364.531 391.548 364.675 391.539C364.838 391.529 365.001 391.523 365.163 391.503C365.381 391.475 365.594 391.428 365.808 391.381C365.961 391.347 366.115 391.322 366.265 391.278C366.499 391.211 366.724 391.12 366.951 391.029C367.073 390.98 367.199 390.943 367.319 390.887C367.66 390.729 367.992 390.547 368.308 390.335L394.28 372.954L394.283 372.951L470.985 321.619C478.702 316.432 489.236 318.467 494.467 326.155C499.249 333.181 498.062 342.736 491.673 348.41Z" fill="white"/>
</svg>
